# Blender 4.2.0
# www.blender.org
o low
v 0.454954 0.009044 0.112551
v -0.117702 0.008990 0.098617
v -0.606292 -0.068705 0.090571
v 0.605115 0.465013 -0.007141
v -0.701830 -0.203690 -0.001250
v 0.763384 -0.609667 -0.023003
v 0.037104 -0.131995 0.005263
v -0.621784 0.646918 0.141810
v -0.618346 -0.382461 -0.060245
v -0.784648 0.237263 0.005608
v -0.471071 0.681134 0.006470
v 0.873946 -0.207375 0.000073
v -0.597114 0.752180 0.021035
v -0.689276 -0.411593 -0.063752
v 0.037163 -0.766284 -0.003783
v -0.696303 0.577996 0.123955
v -0.683220 0.240219 0.009030
v 0.392951 -0.534206 -0.007414
v 0.446385 -0.093517 0.008756
v -0.537198 0.457370 0.005543
v -0.800696 0.593577 0.004610
v -0.773589 -0.445592 -0.017111
v -0.796723 -0.488389 -0.001405
v -0.001475 -0.551838 -0.056558
v 0.863957 -0.551202 -0.016086
v 0.038740 -0.657865 -0.069643
v 0.490904 0.432548 -0.017621
v 0.425355 0.256704 0.000577
v 0.272282 0.625822 -0.000601
v -0.783231 0.716094 0.003074
v -0.736265 -0.267633 -0.012218
v -0.309362 0.019749 0.013881
v -0.291436 -0.505228 -0.003644
v 0.514751 0.621631 -0.119927
v 0.565421 -0.460668 -0.075144
v 0.553755 -0.377935 -0.075005
v 0.763879 -0.213673 0.008191
v 0.850003 -0.411768 -0.003434
v -0.806757 0.124540 0.032422
v -0.077606 -0.761086 -0.017345
v -0.213475 -0.684457 -0.075534
v -0.370073 -0.605471 -0.078287
v -0.492229 -0.602004 -0.075420
v -0.360440 -0.678165 -0.065309
v 0.008065 -0.603885 -0.077575
v -0.239415 -0.163900 0.099602
v -0.455320 -0.143581 0.097432
v -0.365284 -0.041311 0.099886
v 0.649966 0.660975 -0.006693
v 0.638289 -0.015962 0.096535
v 0.142151 -0.048400 0.014129
v 0.429033 -0.274510 -0.007424
v 0.226523 0.166350 0.089129
v 0.375563 0.082137 0.113147
v 0.459909 0.618204 -0.120208
v -0.693310 0.639059 0.118702
v -0.621641 0.578995 0.150237
v -0.622096 -0.293569 -0.013134
v 0.004312 0.169183 0.008647
v 1.000000 1.000000 0.000000
v 0.303630 -0.372540 -0.066945
v -0.204386 0.032052 0.014671
v -1.000000 1.000000 -0.000004
v -0.518485 0.769135 0.000124
v 0.454643 0.771996 -0.007564
v 0.512835 0.014397 0.119033
v 0.108962 -0.000278 0.099504
v 0.006764 0.089374 0.095722
v 0.719703 -0.493714 -0.073815
v -0.759366 0.589604 0.042376
v -0.448344 -0.090315 0.119124
v -0.499527 -0.220106 0.001390
v -0.100901 -0.123843 0.096074
v 0.559007 0.654206 -0.089939
v 0.448570 0.395181 -0.001694
v 0.677725 -0.309456 -0.005047
v 0.367734 0.005848 0.091251
v 0.411564 0.648565 -0.089234
v -0.651292 0.136537 0.089256
v -0.553655 0.654950 0.120289
v -0.643416 0.691521 0.109093
v 1.000000 -1.000000 -0.000000
v 0.758988 -0.694110 -0.002461
v -0.160536 0.066908 0.003342
v -0.217436 -0.258929 0.001466
v -0.648219 0.515751 0.116439
v -0.699234 0.742723 0.014296
v -0.630182 0.051576 0.119164
v -0.706826 0.029931 0.095982
v -0.694269 0.127199 0.096827
v -0.599118 0.207850 0.002505
v 0.319029 0.589599 -0.015088
v 0.335258 0.705240 -0.003945
v 0.484188 0.692588 -0.087522
v 0.288604 -0.604576 -0.003146
v 0.337564 -0.036284 0.024974
v 0.206575 -0.041825 0.003868
v 0.254349 -0.290351 -0.002767
v 0.542294 -0.172944 0.003290
v 0.463267 -0.046652 0.082298
v 0.635669 -0.085334 0.096509
v 0.339347 0.486677 -0.005713
v 0.401979 0.447946 -0.011640
v 0.350455 0.221344 0.018070
v 0.139678 0.225630 0.005749
v 0.571902 0.570196 -0.094656
v -0.655436 0.437005 0.006211
v -0.846529 0.174922 0.004197
v -0.625723 -0.487197 -0.077353
v -0.767336 -0.005297 0.013668
v -0.534384 -0.054356 0.118164
v -1.000000 -1.000000 0.000000
v -0.830053 -0.320348 -0.003567
v -0.148792 -0.055022 0.119908
v -0.211715 -0.025225 0.094909
v -0.174635 -0.095322 0.119794
v -0.078001 -0.074619 0.114362
v -0.035868 -0.006269 0.119245
v -0.491174 -0.190258 0.017496
v -0.481923 0.000895 0.104679
v -0.434848 -0.430810 -0.001697
v -0.422883 -0.525035 -0.059039
v -0.241364 -0.573025 -0.050378
v -0.327893 -0.774105 -0.005175
v -0.458578 0.510439 0.000657
v -0.425770 0.064856 0.004861
v 0.718572 0.048665 0.016618
v 0.512048 0.082433 0.098540
v 0.555722 -0.557317 -0.004374
v 0.776303 0.050388 0.002063
v -0.333551 -0.222442 0.024340
v -0.119194 -0.206861 0.010739
v -0.819836 0.003820 0.001258
v -0.569049 -0.168809 0.004961
v -0.539932 -0.689564 -0.005796
v -0.661834 0.795987 0.002314
v 0.661094 0.561011 -0.005876
v 0.135833 0.039152 0.112949
v 0.118789 0.096026 0.116300
v 0.257068 0.029504 0.096482
v 0.689830 -0.438423 -0.076702
v 0.360773 -0.461057 -0.066919
v 0.489665 0.527211 -0.108596
v 0.405760 0.560557 -0.095063
v -0.503180 0.104073 0.007721
v -0.473488 0.565282 0.019080
v -0.556789 0.522658 0.103886
v -0.540930 0.583573 0.124266
v -0.045267 -0.497824 -0.005835
v 0.586242 0.745886 -0.005525
v 0.045358 0.058568 0.116763
v 0.344711 -0.421776 -0.080188
v -0.511853 0.703973 0.022204
v -0.739911 0.698931 0.022134
v 0.801809 -0.109904 0.009748
v 0.693823 -0.208456 0.016972
v 0.999999 -0.611729 0.000184
v -0.753056 0.491891 0.007556
vn -0.0869 -0.2231 0.9709
vn -0.2548 0.4943 0.8311
vn -0.3944 -0.5146 0.7614
vn -0.2034 0.2411 0.9490
vn -0.0158 -0.0799 0.9967
vn -0.0617 0.3015 0.9515
vn 0.2182 -0.3817 0.8981
vn -0.0146 0.3460 0.9381
vn -0.1437 -0.3447 0.9276
vn -0.1195 0.1957 0.9734
vn 0.3512 0.1691 0.9209
vn 0.0242 -0.0206 0.9995
vn 0.1179 0.6172 0.7779
vn 0.2495 -0.0640 0.9663
vn -0.0765 0.2413 0.9674
vn -0.5752 -0.1606 0.8021
vn 0.0578 0.3075 0.9498
vn -0.0815 0.3956 0.9148
vn -0.2596 -0.4602 0.8490
vn 0.2087 -0.3194 0.9243
vn -0.3144 -0.0277 0.9489
vn 0.3942 0.1765 0.9019
vn 0.1039 0.0812 0.9913
vn 0.4394 -0.3198 0.8395
vn -0.1981 0.0440 0.9792
vn -0.1499 0.3516 0.9241
vn -0.1024 0.6074 0.7878
vn 0.0489 0.1267 0.9907
vn 0.0952 -0.0011 0.9955
vn -0.1334 0.1115 0.9848
vn 0.1447 -0.2789 0.9493
vn 0.0243 0.5787 0.8152
vn -0.0889 -0.3741 0.9231
vn -0.2010 -0.1566 0.9670
vn 0.0689 0.2800 0.9575
vn -0.0517 -0.3296 0.9427
vn 0.1362 -0.2210 0.9657
vn -0.1683 -0.1110 0.9795
vn -0.5760 -0.0516 0.8158
vn -0.0417 0.7111 0.7019
vn 0.0072 0.3408 0.9401
vn -0.0345 -0.0691 0.9970
vn 0.1813 0.2957 0.9379
vn 0.1301 0.4068 0.9042
vn 0.0556 -0.1187 0.9914
vn 0.0573 -0.5995 0.7983
vn -0.1833 -0.6024 0.7768
vn 0.0850 0.5408 0.8369
vn -0.3112 -0.1169 0.9431
vn 0.3731 0.2060 0.9046
vn 0.2734 -0.6116 0.7425
vn 0.0104 -0.3467 0.9379
vn -0.0229 0.5968 0.8021
vn 0.0188 0.1121 0.9935
vn 0.2076 -0.1371 0.9686
vn -0.5628 0.3004 0.7701
vn -0.0024 -0.1584 0.9874
vn -0.2641 -0.4263 0.8651
vn -0.1682 0.3715 0.9131
vn -0.0108 -0.0075 0.9999
vn 0.1312 -0.3991 0.9075
vn -0.1796 0.6295 0.7559
vn -0.0037 0.0073 1.0000
vn 0.0908 0.1605 0.9828
vn 0.0555 -0.3027 0.9515
vn -0.0032 -0.0108 0.9999
vn 0.1952 -0.5220 0.8303
vn -0.2842 0.5511 0.7846
vn -0.1662 0.1430 0.9757
vn -0.7383 -0.0506 0.6726
vn -0.0239 -0.1023 0.9945
vn -0.0875 -0.2130 0.9731
vn 0.2370 -0.5544 0.7978
vn -0.4660 -0.3678 0.8047
vn 0.0274 0.1309 0.9910
vn -0.1030 -0.2958 0.9497
vn -0.1930 -0.5394 0.8196
vn 0.4836 -0.3378 0.8075
vn 0.2192 0.5284 0.8202
vn 0.4746 0.4244 0.7711
vn -0.1517 0.6872 0.7105
vn -0.0056 0.0048 1.0000
vn -0.0042 0.0772 0.9970
vn -0.2252 0.3879 0.8938
vn 0.0348 -0.1757 0.9838
vn -0.1792 -0.6348 0.7516
vn -0.2714 0.5103 0.8161
vn -0.0425 0.0833 0.9956
vn -0.4773 -0.2622 0.8387
vn -0.2144 0.3261 0.9207
vn 0.1830 0.2654 0.9466
vn 0.5213 0.0426 0.8523
vn 0.2272 -0.1434 0.9632
vn 0.0278 -0.5942 0.8038
vn -0.1678 0.2724 0.9474
vn -0.1737 -0.6642 0.7271
vn 0.0542 -0.4938 0.8679
vn 0.0926 -0.2568 0.9620
vn -0.1529 -0.3045 0.9402
vn -0.2571 -0.6010 0.7568
vn 0.1242 -0.3159 0.9406
vn 0.4761 0.2772 0.8345
vn 0.3163 0.5145 0.7970
vn 0.0680 0.5667 0.8211
vn -0.0854 0.3534 0.9315
vn -0.5238 0.1773 0.8332
vn -0.0504 -0.3712 0.9272
vn -0.2039 0.0651 0.9768
vn 0.2190 0.1546 0.9634
vn -0.4276 -0.3974 0.8119
vn -0.1031 -0.1558 0.9824
vn 0.0075 0.0058 1.0000
vn 0.1434 -0.0499 0.9884
vn -0.0344 0.1269 0.9913
vn -0.1466 0.5863 0.7967
vn 0.0468 -0.1068 0.9932
vn 0.0852 -0.2162 0.9726
vn -0.0529 0.0619 0.9967
vn -0.2298 -0.6218 0.7488
vn 0.2414 0.4376 0.8662
vn -0.1934 -0.2939 0.9361
vn -0.2775 -0.4599 0.8435
vn -0.0297 -0.5957 0.8027
vn 0.0495 0.2885 0.9562
vn 0.1244 -0.0770 0.9892
vn 0.1797 0.4079 0.8952
vn 0.3366 0.3443 0.8764
vn 0.2323 0.5074 0.8298
vn 0.0854 0.3302 0.9400
vn 0.0991 0.0653 0.9929
vn -0.0698 -0.7357 0.6737
vn 0.3283 -0.7896 0.5184
vn -0.1224 -0.1016 0.9873
vn -0.2219 -0.4034 0.8877
vn 0.1514 0.2390 0.9591
vn -0.0181 0.1590 0.9871
vn -0.3218 0.0648 0.9446
vn 0.0737 -0.1994 0.9771
vn -0.0620 0.2787 0.9584
vn 0.0113 -0.5391 0.8422
vn -0.1855 -0.2185 0.9581
vn -0.1322 0.3935 0.9098
vn -0.0238 0.4560 0.8897
vn 0.4924 0.2210 0.8418
vn 0.2789 0.3840 0.8802
vn 0.7802 -0.1166 0.6146
vn 0.4369 -0.5853 0.6830
vn 0.5970 -0.1185 0.7935
vn 0.1171 -0.3240 0.9388
vn -0.1677 -0.2562 0.9520
vn -0.0744 0.1269 0.9891
vn -0.0238 0.0033 0.9997
vn 0.4615 0.5294 0.7119
vn -0.4430 0.3920 0.8063
vn 0.3124 0.0227 0.9497
vn 0.0078 -0.5191 0.8547
vn -0.0495 0.0139 0.9987
vn -0.3006 -0.2324 0.9250
vt 0.513594 0.532437
vt 0.474684 0.505685
vt 0.541632 0.502924
vt 0.654440 0.283704
vt 0.498637 0.202685
vt 0.512858 0.177205
vt 0.410277 0.562522
vt 0.347601 0.540182
vt 0.391703 0.546161
vt 0.236674 0.150023
vt 0.264497 0.201651
vt 0.202832 0.252309
vt 0.261762 0.846254
vt 0.213580 0.801194
vt 0.258207 0.791237
vt 0.694151 0.640243
vt 0.706729 0.707331
vt 0.654871 0.752329
vt 0.108702 0.860640
vt 0.150148 0.873160
vt 0.167902 0.900673
vt 0.598011 0.582036
vt 0.666162 0.539083
vt 0.727720 0.540180
vt 0.166695 0.797790
vt 0.126842 0.748509
vt 0.181986 0.778341
vt 0.728021 0.509604
vt 0.702892 0.507331
vt 0.258183 0.386535
vt 0.392602 0.373263
vt 0.337975 0.392919
vt 0.395792 0.165246
vt 0.326914 0.166188
vt 0.341205 0.111061
vt 0.622667 0.820267
vt 0.646163 0.802814
vt 0.653631 0.858204
vt 0.685293 0.734096
vt 0.811168 0.281351
vt 0.808600 0.351108
vt 0.748769 0.306184
vt 0.421720 0.485905
vt 0.409107 0.469038
vt 0.442369 0.452924
vt 0.782800 0.498645
vt 0.689905 0.361859
vt 0.635779 0.306352
vt 0.662293 0.264872
vt 0.679597 0.223743
vt 0.755390 0.268951
vt 0.188083 0.818283
vt 0.166024 0.816697
vt 0.589403 0.461774
vt 0.645865 0.468635
vt 0.610838 0.514191
vt 0.237760 0.888410
vt 0.239956 0.855407
vt 0.381836 0.220969
vt 0.321951 0.201238
vt 0.727383 0.780593
vt 0.727227 0.727099
vt 0.128666 0.486247
vt 0.101574 0.489896
vt 0.223037 0.408813
vt 0.380151 0.437260
vt 0.191178 0.561641
vt 0.171011 0.621508
vt 0.173164 0.554794
vt 0.392740 0.502431
vt 0.830968 0.536486
vt 0.658354 0.622489
vt 0.555883 0.628819
vt 0.170152 0.513436
vt 0.214106 0.471977
vt 0.202870 0.524473
vt 0.548078 0.547574
vt 0.554523 0.521589
vt 0.781824 0.468076
vt 0.705994 0.479346
vt 0.739847 0.412048
vt 0.199699 0.877623
vt 0.180981 0.834966
vt 0.208400 0.823036
vt 0.172472 0.285276
vt 0.204253 0.300040
vt 0.807094 0.835277
vt 0.758423 0.794860
vt 0.811374 0.786397
vt 0.561505 0.461388
vt 0.512969 0.426476
vt 0.177434 0.723116
vt 0.870832 0.454518
vt 0.662485 0.502572
vt 0.696153 0.792157
vt 0.717457 0.812257
vt 0.736252 0.813087
vt 0.754309 0.826370
vt 0.098457 0.328684
vt 0.127911 0.267203
vt 0.893649 0.299598
vt 0.825574 0.256750
vt 0.899405 0.228276
vt 0.112580 0.552158
vt 0.849015 0.155642
vt 0.849370 0.198149
vt 0.697630 0.825444
vt 0.726264 0.841456
vt 0.201629 0.346849
vt 0.293821 0.290823
vt 0.128133 0.798499
vt 0.776099 0.877346
vt 0.850535 0.400332
vt 0.711491 0.889871
vt 0.693257 0.442919
vt 0.211780 0.780070
vt 0.814700 0.402329
vt 0.438140 0.397572
vt 0.269194 0.766237
vt 0.189636 0.799311
vt 0.453301 0.476306
vt 0.436877 0.515957
vt 0.285847 0.469525
vt 0.268503 0.509608
vt 0.246990 0.483046
vt 0.214612 0.611648
vt 0.263168 0.571533
vt 0.860535 0.537579
vt 0.115526 0.246445
vt 0.283166 0.443471
vt 0.489213 0.604744
vt 0.907004 0.403733
vt 0.514927 0.116628
vt 0.633241 0.191453
vt 0.495881 0.549690
vt 0.296852 0.239395
vt 0.101638 0.798986
vt 0.261840 0.402796
vt 0.131578 0.851548
vt 0.145391 0.356153
vt 0.322506 0.494113
vt 0.233579 0.737499
vt 0.459789 0.121958
vt 0.471473 0.260888
vt 0.117345 0.613446
vt 0.086471 0.577413
vt 0.494795 0.229390
vt 0.783355 0.739376
vt 0.359889 0.259113
vt 0.297728 0.558073
vt 0.610321 0.351126
vt 0.751276 0.215178
vt 0.966852 0.197917
vt 0.967865 0.011467
vt 0.160760 0.388950
vt 0.020079 0.000099
vt 0.979764 0.999901
vt 0.000099 0.999901
s 1
f 151/1/151 118/2/118 67/3/67
f 152/4/152 45/5/45 26/6/26
f 84/7/84 32/8/32 62/9/62
f 135/10/135 43/11/43 109/12/109
f 11/13/11 148/14/148 146/15/146
f 28/16/28 75/17/75 102/18/102
f 30/19/30 87/20/87 136/21/136
f 53/22/53 54/23/54 128/24/128
f 16/25/16 158/26/158 86/27/86
f 66/28/66 128/24/128 1/29/1
f 72/30/72 85/31/85 131/32/131
f 41/33/41 44/34/44 124/35/124
f 29/36/29 92/37/92 93/38/93
f 103/39/103 102/18/102 75/17/75
f 141/40/141 76/41/76 36/42/36
f 114/43/114 116/44/116 73/45/73
f 128/24/128 66/28/66 50/46/50
f 52/47/52 61/48/61 36/42/36
f 142/49/142 18/50/18 35/51/35
f 16/25/16 8/52/8 56/53/56
f 97/54/97 96/55/96 140/56/140
f 64/57/64 153/58/153 11/13/11
f 123/59/123 42/60/42 45/5/45
f 143/61/143 103/39/103 27/62/27
f 110/63/110 133/64/133 134/65/134
f 116/44/116 46/66/46 73/45/73
f 67/3/67 97/54/97 140/56/140
f 79/67/79 17/68/17 90/69/90
f 115/70/115 62/9/62 32/8/32
f 128/24/128 127/71/127 104/72/104
f 28/16/28 105/73/105 104/72/104
f 45/5/45 42/60/42 41/33/41
f 89/74/89 3/75/3 88/76/88
f 139/77/139 151/1/151 138/78/138
f 101/79/101 100/80/100 99/81/99
f 13/82/13 81/83/81 80/84/80
f 14/85/14 109/12/109 9/86/9
f 153/58/153 80/84/80 11/13/11
f 152/4/152 142/49/142 36/42/36
f 110/63/110 3/75/3 89/74/89
f 49/87/49 106/88/106 137/89/137
f 97/54/97 51/90/51 7/91/7
f 86/27/86 158/26/158 107/92/107
f 50/46/50 155/93/155 127/71/127
f 77/94/77 1/29/1 54/23/54
f 77/94/77 100/80/100 1/29/1
f 144/95/144 143/61/143 55/96/55
f 55/96/55 143/61/143 34/97/34
f 74/98/74 34/97/34 106/88/106
f 14/85/14 113/99/113 22/100/22
f 38/101/38 69/102/69 25/103/25
f 39/104/39 89/74/89 90/69/90
f 92/37/92 29/36/29 102/18/102
f 83/105/83 25/103/25 6/106/6
f 78/107/78 55/96/55 94/108/94
f 58/109/58 9/86/9 121/110/121
f 70/111/70 16/25/16 56/53/56
f 69/102/69 141/40/141 35/51/35
f 49/87/49 150/112/150 74/98/74
f 101/79/101 37/113/37 155/93/155
f 65/114/65 78/107/78 94/108/94
f 96/55/96 97/54/97 19/115/19
f 107/92/107 147/116/147 86/27/86
f 37/113/37 156/117/156 52/47/52
f 144/95/144 102/18/102 103/39/103
f 92/37/92 78/107/78 93/38/93
f 55/96/55 78/107/78 144/95/144
f 132/118/132 131/32/131 85/31/85
f 39/104/39 133/64/133 110/63/110
f 11/13/11 146/15/146 125/119/125
f 64/57/64 13/82/13 153/58/153
f 80/84/80 57/120/57 148/14/148
f 106/88/106 34/97/34 143/61/143
f 46/66/46 131/32/131 132/118/132
f 118/2/118 117/121/117 67/3/67
f 2/122/2 114/43/114 117/121/117
f 71/123/71 120/124/120 111/125/111
f 135/10/135 44/34/44 43/11/43
f 91/126/91 79/67/79 145/127/145
f 150/112/150 94/108/94 74/98/74
f 28/16/28 127/71/127 130/128/130
f 110/63/110 89/74/89 39/104/39
f 105/73/105 53/22/53 104/72/104
f 22/100/22 113/99/113 23/129/23
f 138/78/138 67/3/67 140/56/140
f 131/32/131 46/66/46 47/130/47
f 139/77/139 140/56/140 54/23/54
f 59/131/59 53/22/53 105/73/105
f 12/132/12 37/113/37 76/41/76
f 15/133/15 95/134/95 26/6/26
f 151/1/151 68/135/68 118/2/118
f 6/106/6 69/102/69 35/51/35
f 147/116/147 57/120/57 86/27/86
f 47/130/47 71/123/71 111/125/111
f 117/121/117 114/43/114 73/45/73
f 100/80/100 66/28/66 1/29/1
f 122/136/122 121/110/121 9/86/9
f 144/95/144 92/37/92 102/18/102
f 70/111/70 21/137/21 158/26/158
f 119/138/119 134/65/134 72/30/72
f 154/139/154 70/111/70 56/53/56
f 31/140/31 113/99/113 14/85/14
f 152/4/152 26/6/26 142/49/142
f 88/76/88 3/75/3 111/125/111
f 115/70/115 48/141/48 116/44/116
f 101/79/101 50/46/50 66/28/66
f 138/78/138 151/1/151 67/3/67
f 77/94/77 54/23/54 140/56/140
f 91/126/91 17/68/17 79/67/79
f 61/48/61 45/5/45 152/4/152
f 44/34/44 42/60/42 43/11/43
f 30/19/30 21/137/21 70/111/70
f 71/123/71 47/130/47 46/66/46
f 81/83/81 56/53/56 8/52/8
f 111/125/111 120/124/120 88/76/88
f 153/58/153 13/82/13 80/84/80
f 114/43/114 115/70/115 116/44/116
f 20/142/20 146/15/146 147/116/147
f 81/83/81 87/20/87 154/139/154
f 9/86/9 58/109/58 31/140/31
f 124/35/124 15/133/15 40/143/40
f 154/139/154 87/20/87 30/19/30
f 134/65/134 119/138/119 47/130/47
f 36/42/36 142/49/142 35/51/35
f 41/33/41 124/35/124 40/143/40
f 32/8/32 48/141/48 115/70/115
f 2/122/2 115/70/115 114/43/114
f 139/77/139 68/135/68 151/1/151
f 36/42/36 35/51/35 141/40/141
f 90/69/90 88/76/88 79/67/79
f 68/135/68 2/122/2 118/2/118
f 29/36/29 11/13/11 125/119/125
f 120/124/120 71/123/71 48/141/48
f 143/61/143 144/95/144 103/39/103
f 50/46/50 101/79/101 155/93/155
f 100/80/100 19/115/19 99/81/99
f 120/124/120 145/127/145 79/67/79
f 90/69/90 89/74/89 88/76/88
f 136/21/136 87/20/87 13/82/13
f 20/142/20 125/119/125 146/15/146
f 123/59/123 122/136/122 42/60/42
f 31/140/31 14/85/14 9/86/9
f 149/144/149 123/59/123 45/5/45
f 17/68/17 10/145/10 90/69/90
f 90/69/90 10/145/10 108/146/108
f 45/5/45 61/48/61 24/147/24
f 77/94/77 96/55/96 100/80/100
f 12/132/12 155/93/155 37/113/37
f 66/28/66 100/80/100 101/79/101
f 67/3/67 117/121/117 73/45/73
f 1/29/1 128/24/128 54/23/54
f 150/112/150 65/114/65 94/108/94
f 74/98/74 94/108/94 34/97/34
f 4/148/4 137/89/137 106/88/106
f 2/122/2 62/9/62 115/70/115
f 118/2/118 2/122/2 117/121/117
f 47/130/47 119/138/119 131/32/131
f 48/141/48 71/123/71 116/44/116
f 131/32/131 119/138/119 72/30/72
f 123/59/123 33/149/33 122/136/122
f 27/62/27 75/17/75 4/148/4
f 69/102/69 6/106/6 25/103/25
f 42/60/42 44/34/44 41/33/41
f 44/34/44 135/10/135 124/35/124
f 73/45/73 132/118/132 7/91/7
f 39/104/39 108/146/108 133/64/133
f 40/143/40 26/6/26 41/33/41
f 79/67/79 88/76/88 120/124/120
f 9/86/9 109/12/109 42/60/42
f 143/61/143 27/62/27 4/148/4
f 139/77/139 54/23/54 53/22/53
f 84/7/84 126/150/126 32/8/32
f 22/100/22 135/10/135 109/12/109
f 11/13/11 80/84/80 148/14/148
f 102/18/102 29/36/29 28/16/28
f 29/36/29 105/73/105 28/16/28
f 116/44/116 71/123/71 46/66/46
f 16/25/16 70/111/70 158/26/158
f 122/136/122 9/86/9 42/60/42
f 75/17/75 27/62/27 103/39/103
f 32/8/32 126/150/126 48/141/48
f 126/150/126 120/124/120 48/141/48
f 38/101/38 76/41/76 141/40/141
f 52/47/52 98/151/98 61/48/61
f 16/25/16 57/120/57 8/52/8
f 134/65/134 47/130/47 3/75/3
f 3/75/3 110/63/110 134/65/134
f 96/55/96 77/94/77 140/56/140
f 154/139/154 56/53/56 81/83/81
f 26/6/26 40/143/40 15/133/15
f 53/22/53 68/135/68 139/77/139
f 81/83/81 8/52/8 80/84/80
f 3/75/3 47/130/47 111/125/111
f 149/144/149 45/5/45 24/147/24
f 67/3/67 51/90/51 97/54/97
f 41/33/41 26/6/26 45/5/45
f 148/14/148 147/116/147 146/15/146
f 156/117/156 101/79/101 99/81/99
f 36/42/36 61/48/61 152/4/152
f 42/60/42 109/12/109 43/11/43
f 84/7/84 62/9/62 2/122/2
f 68/135/68 59/131/59 2/122/2
f 59/131/59 84/7/84 2/122/2
f 126/150/126 145/127/145 120/124/120
f 94/108/94 55/96/55 34/97/34
f 24/147/24 61/48/61 98/151/98
f 98/151/98 149/144/149 24/147/24
f 90/69/90 108/146/108 39/104/39
f 49/87/49 74/98/74 106/88/106
f 107/92/107 10/145/10 17/68/17
f 38/101/38 141/40/141 69/102/69
f 6/106/6 129/152/129 83/105/83
f 53/22/53 128/24/128 104/72/104
f 51/90/51 67/3/67 7/91/7
f 67/3/67 73/45/73 7/91/7
f 83/105/83 157/153/157 25/103/25
f 22/100/22 109/12/109 14/85/14
f 130/128/130 127/71/127 155/93/155
f 65/114/65 93/38/93 78/107/78
f 107/92/107 20/142/20 147/116/147
f 100/80/100 96/55/96 19/115/19
f 76/41/76 37/113/37 52/47/52
f 92/37/92 144/95/144 78/107/78
f 85/31/85 7/91/7 132/118/132
f 64/57/64 136/21/136 13/82/13
f 80/84/80 8/52/8 57/120/57
f 106/88/106 143/61/143 4/148/4
f 76/41/76 52/47/52 36/42/36
f 28/16/28 104/72/104 127/71/127
f 157/153/157 83/105/83 82/154/82
f 23/129/23 135/10/135 22/100/22
f 35/51/35 18/50/18 129/152/129
f 121/110/121 5/155/5 58/109/58
f 5/155/5 113/99/113 31/140/31
f 139/77/139 138/78/138 140/56/140
f 59/131/59 68/135/68 53/22/53
f 95/134/95 18/50/18 142/49/142
f 142/49/142 26/6/26 95/134/95
f 147/116/147 148/14/148 57/120/57
f 132/118/132 73/45/73 46/66/46
f 127/71/127 128/24/128 50/46/50
f 81/83/81 13/82/13 87/20/87
f 129/152/129 6/106/6 35/51/35
f 31/140/31 58/109/58 5/155/5
f 72/30/72 134/65/134 5/155/5
f 134/65/134 133/64/133 5/155/5
f 5/155/5 133/64/133 113/99/113
f 99/81/99 19/115/19 98/151/98
f 19/115/19 97/54/97 98/151/98
f 52/47/52 156/117/156 99/81/99
f 97/54/97 7/91/7 98/151/98
f 99/81/99 98/151/98 52/47/52
f 149/144/149 98/151/98 85/31/85
f 85/31/85 98/151/98 7/91/7
f 33/149/33 149/144/149 85/31/85
f 121/110/121 33/149/33 85/31/85
f 5/155/5 121/110/121 72/30/72
f 121/110/121 85/31/85 72/30/72
f 113/99/113 133/64/133 108/146/108
f 135/10/135 23/129/23 112/156/112
f 95/134/95 15/133/15 83/105/83
f 129/152/129 18/50/18 95/134/95
f 83/105/83 129/152/129 95/134/95
f 157/153/157 60/157/60 12/132/12
f 38/101/38 157/153/157 12/132/12
f 38/101/38 25/103/25 157/153/157
f 82/154/82 83/105/83 15/133/15
f 12/132/12 76/41/76 38/101/38
f 28/16/28 130/128/130 4/148/4
f 112/156/112 82/154/82 15/133/15
f 112/156/112 15/133/15 124/35/124
f 130/128/130 12/132/12 60/157/60
f 130/128/130 137/89/137 4/148/4
f 130/128/130 60/157/60 137/89/137
f 112/156/112 124/35/124 135/10/135
f 4/148/4 75/17/75 28/16/28
f 112/156/112 23/129/23 113/99/113
f 63/158/63 112/156/112 108/146/108
f 112/156/112 113/99/113 108/146/108
f 49/87/49 137/89/137 60/157/60
f 63/158/63 108/146/108 21/137/21
f 108/146/108 10/145/10 21/137/21
f 10/145/10 107/92/107 158/26/158
f 150/112/150 49/87/49 60/157/60
f 65/114/65 150/112/150 60/157/60
f 10/145/10 158/26/158 21/137/21
f 65/114/65 60/157/60 63/158/63
f 93/38/93 65/114/65 64/57/64
f 65/114/65 63/158/63 64/57/64
f 63/158/63 21/137/21 30/19/30
f 63/158/63 30/19/30 136/21/136
f 29/36/29 93/38/93 11/13/11
f 64/57/64 63/158/63 136/21/136
f 84/7/84 59/131/59 125/119/125
f 59/131/59 105/73/105 125/119/125
f 105/73/105 29/36/29 125/119/125
f 93/38/93 64/57/64 11/13/11
f 91/126/91 145/127/145 20/142/20
f 145/127/145 126/150/126 20/142/20
f 107/92/107 17/68/17 91/126/91
f 125/119/125 20/142/20 126/150/126
f 20/142/20 107/92/107 91/126/91
f 126/150/126 84/7/84 125/119/125
f 30/19/30 70/111/70 154/139/154
f 149/144/149 33/149/33 123/59/123
f 57/120/57 16/25/16 86/27/86
f 122/136/122 33/149/33 121/110/121
f 156/117/156 37/113/37 101/79/101
f 155/93/155 12/132/12 130/128/130
